<?xml version="1.0" encoding="UTF-8"?>
<!DOCTYPE svg PUBLIC "-//W3C//DTD SVG 1.1//EN" "http://www.w3.org/Graphics/SVG/1.1/DTD/svg11.dtd">
<svg version="1.1" xmlns="http://www.w3.org/2000/svg" xmlns:xlink="http://www.w3.org/1999/xlink" x="0" y="0" width="110" height="109.999" viewBox="0, 0, 110, 109.999">
  <g id="Layer_1" transform="translate(-310.394, -119.764)">
    <g>
      <path d="M378.318,228.21 C348.801,235.348 319.085,217.205 311.947,187.688 C304.809,158.169 322.951,128.456 352.47,121.318 C381.987,114.179 411.703,132.32 418.841,161.839 C425.977,191.356 407.837,221.071 378.318,228.21" fill="#AAD7A5"/>
      <path d="M368.427,144.567 C368.427,144.23 368.508,144 368.67,143.876 C368.831,143.752 369.057,143.69 369.351,143.69 C369.642,143.69 369.874,143.752 370.042,143.876 C370.209,144 370.294,144.23 370.294,144.567 L370.294,171.973 C370.294,172.311 370.209,172.54 370.042,172.665 C369.874,172.791 369.642,172.853 369.351,172.853 C369.057,172.853 368.831,172.791 368.67,172.665 C368.508,172.54 368.427,172.311 368.427,171.973 z" fill="#FFFFFF"/>
      <path d="M372.491,158.486 C372.491,158.105 372.605,157.809 372.833,157.596 C373.058,157.385 373.34,157.277 373.677,157.277 C374.014,157.277 374.296,157.385 374.524,157.596 C374.749,157.809 374.863,158.105 374.863,158.486 C374.863,158.867 374.749,159.163 374.524,159.376 C374.296,159.587 374.014,159.695 373.677,159.695 C373.34,159.695 373.058,159.587 372.833,159.376 C372.605,159.163 372.491,158.867 372.491,158.486 M372.754,162.396 C372.754,162.058 372.835,161.829 372.996,161.704 C373.158,161.58 373.385,161.518 373.677,161.518 C373.971,161.518 374.201,161.58 374.37,161.704 C374.538,161.829 374.623,162.058 374.623,162.396 L374.623,171.974 C374.623,172.311 374.538,172.541 374.37,172.665 C374.201,172.789 373.971,172.851 373.677,172.851 C373.385,172.851 373.158,172.789 372.996,172.665 C372.835,172.541 372.754,172.311 372.754,171.974 z" fill="#FFFFFF"/>
      <path d="M376.929,163.253 C376.635,163.253 376.438,163.183 376.337,163.044 C376.233,162.905 376.182,162.711 376.182,162.462 C376.182,162.212 376.233,162.019 376.337,161.879 C376.438,161.74 376.635,161.672 376.929,161.672 L377.918,161.672 L377.918,159.408 C377.918,159.13 377.943,158.925 377.995,158.795 C378.044,158.663 378.152,158.545 378.313,158.441 C378.576,158.282 378.862,158.201 379.17,158.201 C379.58,158.201 379.785,158.412 379.785,158.836 L379.785,161.672 L381.85,161.672 C382.142,161.672 382.341,161.74 382.442,161.879 C382.544,162.019 382.597,162.212 382.597,162.462 C382.597,162.711 382.544,162.905 382.442,163.044 C382.341,163.183 382.142,163.253 381.85,163.253 L379.785,163.253 L379.785,169.756 C379.785,170.399 379.884,170.838 380.081,171.072 C380.279,171.308 380.613,171.424 381.08,171.424 C381.256,171.424 381.407,171.403 381.532,171.358 C381.656,171.314 381.77,171.271 381.871,171.227 C381.974,171.182 382.072,171.138 382.167,171.095 C382.262,171.051 382.376,171.031 382.508,171.031 C382.713,171.031 382.893,171.118 383.047,171.293 C383.2,171.467 383.278,171.68 383.278,171.929 C383.278,172.281 383.051,172.556 382.597,172.753 C382.142,172.951 381.571,173.051 380.884,173.051 C379.872,173.051 379.127,172.804 378.642,172.314 C378.158,171.823 377.918,171.109 377.918,170.172 L377.918,163.253 z" fill="#FFFFFF"/>
      <path d="M384.661,163.253 C384.367,163.253 384.171,163.183 384.067,163.044 C383.966,162.905 383.914,162.711 383.914,162.462 C383.914,162.212 383.966,162.019 384.067,161.879 C384.171,161.74 384.367,161.672 384.661,161.672 L385.65,161.672 L385.65,159.408 C385.65,159.13 385.675,158.925 385.727,158.795 C385.777,158.663 385.884,158.545 386.046,158.441 C386.308,158.282 386.594,158.201 386.902,158.201 C387.312,158.201 387.517,158.412 387.517,158.836 L387.517,161.672 L389.583,161.672 C389.874,161.672 390.073,161.74 390.175,161.879 C390.276,162.019 390.33,162.212 390.33,162.462 C390.33,162.711 390.276,162.905 390.175,163.044 C390.073,163.183 389.874,163.253 389.583,163.253 L387.517,163.253 L387.517,169.756 C387.517,170.399 387.616,170.838 387.813,171.072 C388.012,171.308 388.345,171.424 388.813,171.424 C388.989,171.424 389.14,171.403 389.264,171.358 C389.388,171.314 389.5,171.271 389.603,171.227 C389.707,171.182 389.804,171.138 389.899,171.095 C389.994,171.051 390.108,171.031 390.241,171.031 C390.446,171.031 390.626,171.118 390.779,171.293 C390.932,171.467 391.011,171.68 391.011,171.929 C391.011,172.281 390.783,172.556 390.33,172.753 C389.874,172.951 389.303,173.051 388.616,173.051 C387.604,173.051 386.857,172.804 386.375,172.314 C385.89,171.823 385.65,171.109 385.65,170.172 L385.65,163.253 z" fill="#FFFFFF"/>
      <path d="M392.986,158.178 C392.986,157.841 393.066,157.611 393.228,157.487 C393.389,157.363 393.615,157.301 393.909,157.301 C394.201,157.301 394.432,157.363 394.6,157.487 C394.768,157.611 394.852,157.841 394.852,158.178 L394.852,171.975 C394.852,172.312 394.768,172.542 394.6,172.666 C394.432,172.79 394.201,172.852 393.909,172.852 C393.615,172.852 393.389,172.79 393.228,172.666 C393.066,172.542 392.986,172.312 392.986,171.975 z" fill="#FFFFFF"/>
      <path d="M407.067,166.921 C407.067,167.449 406.767,167.712 406.166,167.712 L398.697,167.712 C398.697,168.898 398.993,169.813 399.587,170.458 C400.179,171.102 401.019,171.425 402.102,171.425 C402.526,171.425 402.896,171.369 403.211,171.259 C403.525,171.15 403.792,171.017 404.014,170.864 C404.233,170.711 404.411,170.554 404.552,170.392 C404.691,170.231 404.805,170.092 404.891,169.974 C404.995,169.829 405.092,169.719 405.187,169.645 C405.283,169.573 405.425,169.535 405.616,169.535 C405.821,169.535 406.024,169.602 406.22,169.732 C406.419,169.864 406.518,170.04 406.518,170.26 C406.518,170.452 406.435,170.678 406.276,170.941 C406.144,171.145 405.972,171.369 405.759,171.611 C405.548,171.853 405.276,172.083 404.947,172.302 C404.618,172.524 404.219,172.706 403.749,172.853 C403.281,173 402.731,173.07 402.102,173.07 C401.282,173.07 400.539,172.929 399.873,172.644 C399.206,172.358 398.639,171.955 398.169,171.435 C397.702,170.916 397.341,170.293 397.093,169.568 C396.845,168.844 396.721,168.049 396.721,167.184 C396.721,166.307 396.845,165.508 397.093,164.792 C397.341,164.074 397.697,163.455 398.159,162.935 C398.62,162.414 399.177,162.01 399.829,161.727 C400.481,161.441 401.207,161.298 402.015,161.298 C402.834,161.298 403.559,161.441 404.188,161.727 C404.819,162.01 405.345,162.407 405.771,162.912 C406.195,163.417 406.518,164.014 406.738,164.703 C406.957,165.392 407.067,166.131 407.067,166.921 M402.025,162.9 C401.512,162.9 401.063,162.985 400.68,163.155 C400.299,163.322 399.976,163.55 399.711,163.836 C399.446,164.121 399.237,164.458 399.082,164.846 C398.929,165.235 398.829,165.64 398.786,166.065 L405.2,166.065 C405.154,165.655 405.063,165.255 404.922,164.866 C404.784,164.479 404.585,164.142 404.328,163.856 C404.072,163.571 403.751,163.341 403.37,163.165 C402.987,162.989 402.538,162.9 402.025,162.9" fill="#FFFFFF"/>
      <path d="M343.606,175.238 C343.182,175.238 342.83,175.354 342.552,175.59 C342.273,175.824 342.134,176.262 342.134,176.906 L342.134,178.313 L344.067,178.313 C344.359,178.313 344.558,178.384 344.661,178.522 C344.763,178.661 344.814,178.856 344.814,179.104 C344.814,179.352 344.763,179.547 344.661,179.686 C344.558,179.824 344.359,179.895 344.067,179.895 L342.134,179.895 L342.134,188.616 C342.134,188.951 342.049,189.183 341.882,189.307 C341.712,189.431 341.482,189.494 341.191,189.494 C340.897,189.494 340.669,189.431 340.51,189.307 C340.348,189.183 340.268,188.951 340.268,188.616 L340.268,179.895 L339.255,179.895 C338.964,179.895 338.765,179.824 338.664,179.686 C338.56,179.547 338.51,179.352 338.51,179.104 C338.51,178.856 338.56,178.661 338.664,178.522 C338.765,178.384 338.964,178.313 339.255,178.313 L340.268,178.313 L340.268,176.776 C340.268,175.867 340.549,175.132 341.112,174.567 C341.677,174.004 342.501,173.723 343.583,173.723 C343.891,173.723 344.196,173.754 344.496,173.82 C344.796,173.886 345.059,173.973 345.286,174.085 C345.512,174.195 345.7,174.323 345.847,174.468 C345.992,174.615 346.067,174.776 346.067,174.952 C346.067,175.201 345.99,175.412 345.835,175.59 C345.682,175.766 345.502,175.853 345.297,175.853 C345.166,175.853 345.044,175.819 344.935,175.753 C344.825,175.687 344.707,175.619 344.583,175.544 C344.458,175.472 344.32,175.401 344.167,175.335 C344.011,175.271 343.825,175.238 343.606,175.238" fill="#FFFFFF"/>
      <path d="M347.449,174.82 C347.449,174.483 347.53,174.253 347.691,174.127 C347.853,174.005 348.078,173.941 348.372,173.941 C348.664,173.941 348.896,174.005 349.064,174.127 C349.231,174.253 349.316,174.483 349.316,174.82 L349.316,188.615 C349.316,188.952 349.231,189.184 349.064,189.306 C348.896,189.432 348.664,189.494 348.372,189.494 C348.078,189.494 347.853,189.432 347.691,189.306 C347.53,189.184 347.449,188.952 347.449,188.615 z" fill="#FFFFFF"/>
      <path d="M351.184,183.805 C351.184,182.882 351.313,182.058 351.569,181.334 C351.826,180.61 352.192,179.993 352.666,179.488 C353.142,178.983 353.711,178.598 354.369,178.335 C355.027,178.072 355.76,177.94 356.565,177.94 C357.372,177.94 358.103,178.072 358.763,178.335 C359.421,178.598 359.988,178.983 360.464,179.488 C360.94,179.993 361.307,180.61 361.563,181.334 C361.82,182.058 361.948,182.882 361.948,183.805 C361.948,184.728 361.82,185.554 361.563,186.287 C361.307,187.019 360.94,187.638 360.464,188.143 C359.988,188.648 359.421,189.037 358.763,189.306 C358.103,189.577 357.372,189.714 356.565,189.714 C355.76,189.714 355.027,189.577 354.369,189.306 C353.711,189.037 353.142,188.648 352.666,188.143 C352.192,187.638 351.826,187.019 351.569,186.287 C351.313,185.554 351.184,184.728 351.184,183.805 M353.161,183.805 C353.161,185.136 353.455,186.185 354.04,186.945 C354.626,187.708 355.468,188.087 356.565,188.087 C357.664,188.087 358.507,187.708 359.092,186.945 C359.678,186.185 359.972,185.136 359.972,183.805 C359.972,182.472 359.678,181.431 359.092,180.686 C358.507,179.939 357.664,179.564 356.565,179.564 C355.468,179.564 354.626,179.939 354.04,180.686 C353.455,181.431 353.161,182.472 353.161,183.805" fill="#FFFFFF"/>
      <path d="M369.416,178.862 C369.505,178.599 369.621,178.415 369.768,178.314 C369.913,178.21 370.132,178.158 370.426,178.158 C370.72,178.158 370.942,178.206 371.097,178.303 C371.25,178.396 371.364,178.585 371.436,178.862 L373.897,186.989 L376.445,178.663 C376.49,178.502 376.559,178.38 376.654,178.291 C376.749,178.204 376.9,178.158 377.105,178.158 C377.353,178.158 377.6,178.216 377.84,178.334 C378.082,178.452 378.202,178.634 378.202,178.885 C378.202,178.986 378.187,179.077 378.158,179.158 C378.129,179.239 378.101,179.332 378.072,179.433 L374.886,188.813 C374.812,189.049 374.692,189.218 374.524,189.328 C374.354,189.44 374.11,189.494 373.787,189.494 C373.465,189.494 373.22,189.442 373.051,189.341 C372.883,189.237 372.763,189.061 372.691,188.813 L370.296,181.014 L367.966,188.813 C367.893,189.061 367.773,189.237 367.603,189.341 C367.436,189.442 367.189,189.494 366.869,189.494 C366.546,189.494 366.302,189.44 366.132,189.328 C365.964,189.218 365.842,189.049 365.77,188.813 L362.694,179.52 C362.665,179.404 362.636,179.305 362.607,179.224 C362.576,179.144 362.562,179.044 362.562,178.928 C362.562,178.663 362.69,178.471 362.947,178.345 C363.203,178.223 363.456,178.158 363.704,178.158 C363.909,178.158 364.064,178.21 364.166,178.314 C364.269,178.415 364.35,178.547 364.408,178.709 L366.999,186.989 z" fill="#FFFFFF"/>
      <path d="M389.164,183.563 C389.164,184.09 388.864,184.353 388.264,184.353 L380.795,184.353 C380.795,185.541 381.091,186.456 381.685,187.1 C382.277,187.743 383.117,188.066 384.199,188.066 C384.624,188.066 384.994,188.01 385.309,187.901 C385.623,187.793 385.89,187.66 386.112,187.507 C386.331,187.352 386.509,187.195 386.65,187.033 C386.788,186.874 386.902,186.733 386.989,186.617 C387.093,186.47 387.19,186.361 387.285,186.286 C387.38,186.214 387.523,186.177 387.714,186.177 C387.918,186.177 388.121,186.243 388.318,186.375 C388.517,186.508 388.616,186.682 388.616,186.903 C388.616,187.091 388.533,187.319 388.374,187.584 C388.241,187.789 388.069,188.01 387.856,188.252 C387.645,188.495 387.374,188.724 387.045,188.946 C386.714,189.165 386.316,189.347 385.847,189.494 C385.379,189.641 384.828,189.714 384.199,189.714 C383.38,189.714 382.637,189.571 381.97,189.285 C381.304,189 380.737,188.596 380.267,188.079 C379.799,187.557 379.439,186.934 379.191,186.21 C378.942,185.485 378.818,184.691 378.818,183.825 C378.818,182.948 378.942,182.149 379.191,181.433 C379.439,180.715 379.795,180.096 380.257,179.576 C380.718,179.057 381.275,178.653 381.927,178.368 C382.577,178.082 383.305,177.939 384.112,177.939 C384.932,177.939 385.656,178.082 386.285,178.368 C386.917,178.653 387.442,179.049 387.869,179.554 C388.293,180.059 388.616,180.657 388.835,181.344 C389.055,182.033 389.164,182.772 389.164,183.563 M384.123,179.543 C383.609,179.543 383.16,179.626 382.777,179.796 C382.397,179.964 382.074,180.191 381.809,180.477 C381.544,180.762 381.335,181.1 381.18,181.487 C381.027,181.876 380.927,182.281 380.884,182.706 L387.298,182.706 C387.252,182.296 387.161,181.897 387.02,181.51 C386.882,181.12 386.683,180.783 386.426,180.497 C386.17,180.214 385.849,179.982 385.468,179.806 C385.085,179.63 384.636,179.543 384.123,179.543" fill="#FFFFFF"/>
      <path d="M392.833,188.615 C392.833,188.953 392.748,189.182 392.58,189.306 C392.413,189.431 392.181,189.495 391.889,189.495 C391.595,189.495 391.368,189.431 391.208,189.306 C391.047,189.182 390.966,188.953 390.966,188.615 L390.966,178.993 C390.966,178.673 391.039,178.453 391.186,178.335 C391.332,178.217 391.552,178.159 391.844,178.159 C392.138,178.159 392.361,178.217 392.514,178.335 C392.667,178.453 392.744,178.673 392.744,178.993 L392.744,180.246 C393.139,179.513 393.634,178.983 394.228,178.654 C394.822,178.323 395.455,178.159 396.128,178.159 C396.465,178.159 396.705,178.232 396.852,178.379 C396.999,178.526 397.072,178.76 397.072,179.08 C397.072,179.418 396.999,179.668 396.852,179.83 C396.705,179.989 396.465,180.07 396.128,180.07 C393.932,180.07 392.833,181.44 392.833,184.178 z" fill="#FFFFFF"/>
      <path d="M398.412,188.637 C398.25,188.505 398.137,188.377 398.07,188.252 C398.006,188.128 397.973,188.008 397.973,187.89 C397.973,187.642 398.06,187.41 398.236,187.199 C398.412,186.986 398.625,186.88 398.873,186.88 C399.02,186.88 399.155,186.909 399.279,186.967 C399.403,187.027 399.546,187.114 399.707,187.23 C399.956,187.408 400.316,187.605 400.784,187.824 C401.251,188.043 401.839,188.153 402.541,188.153 C403.317,188.153 403.915,188 404.331,187.694 C404.749,187.385 404.958,186.967 404.958,186.439 C404.958,186.251 404.935,186.067 404.892,185.891 C404.848,185.715 404.749,185.547 404.596,185.386 C404.441,185.225 404.219,185.082 403.925,184.958 C403.631,184.833 403.236,184.734 402.739,184.662 L401.4,184.442 C400.446,184.295 399.668,183.958 399.06,183.43 C398.451,182.904 398.149,182.164 398.149,181.214 C398.149,180.173 398.532,179.367 399.302,178.796 C400.07,178.225 401.113,177.939 402.431,177.939 C403.017,177.939 403.526,177.979 403.958,178.059 C404.391,178.142 404.753,178.24 405.045,178.357 C405.339,178.473 405.581,178.595 405.769,178.72 C405.96,178.844 406.107,178.949 406.21,179.038 C406.488,179.272 406.628,179.506 406.628,179.74 C406.628,179.976 406.558,180.183 406.417,180.367 C406.279,180.551 406.076,180.642 405.811,180.642 C405.649,180.642 405.498,180.609 405.36,180.543 C405.221,180.477 405.055,180.386 404.865,180.268 C404.583,180.108 404.25,179.939 403.861,179.763 C403.472,179.587 402.961,179.498 402.33,179.498 C401.535,179.498 400.951,179.645 400.577,179.939 C400.202,180.23 400.016,180.605 400.016,181.058 C400.016,181.249 400.036,181.433 400.082,181.609 C400.125,181.783 400.217,181.948 400.357,182.104 C400.496,182.255 400.703,182.391 400.974,182.509 C401.245,182.627 401.609,182.714 402.065,182.772 L403.431,182.991 C404.563,183.153 405.411,183.501 405.976,184.034 C406.541,184.571 406.825,185.32 406.825,186.286 C406.825,187.356 406.452,188.194 405.705,188.801 C404.958,189.409 403.888,189.714 402.497,189.714 C401.941,189.714 401.44,189.678 400.993,189.604 C400.546,189.531 400.15,189.44 399.807,189.329 C399.463,189.219 399.178,189.103 398.95,188.977 C398.722,188.853 398.544,188.741 398.412,188.637" fill="#FFFFFF"/>
      <path d="M392.971,144.601 C392.971,144.264 393.052,144.034 393.213,143.91 C393.375,143.786 393.6,143.723 393.894,143.723 C394.186,143.723 394.418,143.786 394.585,143.91 C394.755,144.034 394.838,144.264 394.838,144.601 L394.838,172.007 C394.838,172.344 394.755,172.574 394.585,172.7 C394.418,172.825 394.186,172.887 393.894,172.887 C393.6,172.887 393.375,172.825 393.213,172.7 C393.052,172.574 392.971,172.344 392.971,172.007 z" fill="#FFFFFF"/>
      <path d="M347.478,161.288 C347.478,160.951 347.559,160.721 347.721,160.597 C347.882,160.473 348.108,160.411 348.402,160.411 C348.693,160.411 348.925,160.473 349.093,160.597 C349.26,160.721 349.345,160.951 349.345,161.288 L349.345,188.694 C349.345,189.032 349.26,189.261 349.093,189.385 C348.925,189.512 348.693,189.574 348.402,189.574 C348.108,189.574 347.882,189.512 347.721,189.385 C347.559,189.261 347.478,189.032 347.478,188.694 z" fill="#FFFFFF"/>
      <path d="M353.098,160.345 C353.098,162.891 351.035,164.954 348.487,164.954 C345.944,164.954 343.88,162.891 343.88,160.345 C343.88,157.799 345.944,155.736 348.487,155.736 C351.035,155.736 353.098,157.799 353.098,160.345" fill="#FFFFFF"/>
      <path d="M373.994,143.628 C373.994,146.174 371.931,148.237 369.383,148.237 C366.84,148.237 364.776,146.174 364.776,143.628 C364.776,141.082 366.84,139.019 369.383,139.019 C371.931,139.019 373.994,141.082 373.994,143.628" fill="#FFFFFF"/>
      <path d="M398.473,143.628 C398.473,146.174 396.409,148.237 393.862,148.237 C391.318,148.237 389.255,146.174 389.255,143.628 C389.255,141.082 391.318,139.019 393.862,139.019 C396.409,139.019 398.473,141.082 398.473,143.628" fill="#FFFFFF"/>
    </g>
  </g>
</svg>
