<?xml version="1.0" encoding="UTF-8"?>
<!DOCTYPE svg PUBLIC "-//W3C//DTD SVG 1.1//EN" "http://www.w3.org/Graphics/SVG/1.1/DTD/svg11.dtd">
<svg version="1.1" xmlns="http://www.w3.org/2000/svg" xmlns:xlink="http://www.w3.org/1999/xlink" x="0" y="0" width="26.587" height="21" viewBox="0, 0, 26.587, 21">
  <g id="Layer_1" transform="translate(-703, -563)">
    <path d="M710.707,563 C711.435,563 712.058,563.523 712.184,564.239 L713.827,573.552 L723.926,573.552 L725.958,567.862 L714.431,567.862 C713.603,567.862 712.931,567.19 712.931,566.362 C712.931,565.534 713.603,564.862 714.431,564.862 L728.086,564.862 C729.124,564.862 729.848,565.89 729.499,566.866 L726.395,575.556 C726.182,576.153 725.617,576.552 724.983,576.552 L712.569,576.552 C711.841,576.552 711.218,576.029 711.092,575.312 L709.448,566 L704.5,566 C703.672,566 703,565.328 703,564.5 C703,563.672 703.672,563 704.5,563 L710.707,563 z" fill="#6D6E71"/>
    <path d="M714.431,576.034 C716.631,576.034 718.414,577.818 718.414,580.017 C718.414,582.217 716.631,584 714.431,584 C712.231,584 710.448,582.217 710.448,580.017 C710.448,577.818 712.231,576.034 714.431,576.034 z M714.431,579.034 C713.888,579.034 713.448,579.474 713.448,580.017 C713.448,580.56 713.888,581 714.431,581 C714.974,581 715.414,580.56 715.414,580.017 C715.414,579.474 714.974,579.034 714.431,579.034 z" fill="#6D6E71"/>
    <path d="M723.121,576.034 C725.32,576.034 727.103,577.818 727.103,580.017 C727.103,582.217 725.32,584 723.121,584 C720.921,584 719.138,582.217 719.138,580.017 C719.138,577.818 720.921,576.034 723.121,576.034 z M723.121,579.034 C722.578,579.034 722.138,579.474 722.138,580.017 C722.138,580.56 722.578,581 723.121,581 C723.663,581 724.103,580.56 724.103,580.017 C724.103,579.474 723.663,579.034 723.121,579.034 z" fill="#6D6E71"/>
  </g>
</svg>
